<svg width="458" height="440" viewBox="0 0 458 440" fill="none" xmlns="http://www.w3.org/2000/svg">
<g opacity="0.5" filter="url(#filter0_f)">
<ellipse cx="229" cy="220" rx="145" ry="136" fill="#354BD4"/>
</g>
<g opacity="0.8" filter="url(#filter1_d)">
<path fill-rule="evenodd" clip-rule="evenodd" d="M295.037 198.061V241.932V241.932C301.251 243.494 305.868 249.134 305.861 255.839C305.861 263.741 299.43 270.172 291.527 270.172C287.499 270.172 283.849 268.498 281.243 265.808C281.217 265.824 267.87 273.532 257.004 279.806L256.116 280.319L255.679 280.571L255.501 280.674C248.724 284.588 243.263 287.741 243.249 287.749C245.855 296.906 238.941 306 229.462 306C220.004 306 213.068 296.92 215.674 287.749L196.688 276.771L177.633 265.793C175.026 268.49 171.376 270.172 167.334 270.172C159.431 270.172 153 263.74 153 255.838C153 249.112 157.652 243.465 163.901 241.917V198.082C157.652 196.534 153 190.88 153 184.162C153 176.259 159.431 169.828 167.334 169.828C171.376 169.828 175.026 171.509 177.633 174.207C177.651 174.197 185.571 169.625 194.178 164.657C204.427 158.741 215.652 152.262 215.674 152.251C213.075 143.101 219.976 134 229.462 134C238.934 134 245.855 143.08 243.256 152.243C243.321 152.277 281.194 174.15 281.25 174.185C283.856 171.502 287.506 169.827 291.534 169.827C299.437 169.827 305.868 176.259 305.868 184.161C305.868 190.859 301.258 196.492 295.037 198.061ZM281.908 245.21L281.908 245.21L281.908 245.211L281.908 245.21ZM288.031 241.925C285.565 242.569 283.506 243.746 281.908 245.21L264.478 235.493L284.402 196.59C285.565 197.263 286.826 197.76 288.031 198.061V241.925ZM175.455 244.019C174.117 243.094 172.576 242.366 170.901 241.938V198.053C172.169 197.731 173.367 197.234 174.474 196.589L193.887 234.477L175.455 244.019ZM278.357 189.828C278.28 189.646 278.21 189.471 278.14 189.289L232.973 189.288V206.081C235.747 206.782 238.206 208.288 240.076 210.348L278.357 189.828ZM229.463 227.338C225.42 227.338 222.135 224.038 222.135 219.982C222.135 216.058 225.336 212.654 229.463 212.654C233.505 212.654 236.791 215.939 236.791 219.982C236.798 224.038 233.512 227.338 229.463 227.338ZM219.831 209.374C221.547 207.812 223.642 206.663 225.961 206.082V189.289H189.684L219.831 209.374ZM179.749 191.516C179.812 191.411 179.868 191.306 179.924 191.201L179.924 191.201L215.956 215.203C215.045 217.774 214.884 220.556 215.521 223.274L200.116 231.253L179.749 191.516ZM225.958 233.909C223.121 233.194 220.62 231.625 218.735 229.495L203.302 237.488C205.865 242.49 222.708 275.383 224.207 278.319C224.767 278.101 225.342 277.912 225.937 277.758L225.958 233.909ZM234.688 278.312C234.127 278.088 233.546 277.906 232.95 277.752L232.971 233.91C235.662 233.23 238.058 231.787 239.907 229.819L255.166 238.324L234.688 278.312ZM243.375 216.528C243.963 218.896 243.942 221.355 243.312 223.702L258.354 232.089L275 199.574L243.375 216.528ZM291.534 176.826C295.576 176.826 298.862 180.111 298.862 184.154C298.862 188.196 295.576 191.482 291.534 191.482C288.29 191.482 285.53 189.359 284.57 186.431C284.419 185.94 284.372 185.645 284.331 185.385L284.331 185.385V185.384C284.308 185.237 284.286 185.1 284.248 184.945C283.779 180.623 287.169 176.826 291.534 176.826ZM277.319 182.284C277.417 181.548 277.578 180.798 277.732 180.245L277.733 180.245C277.697 180.224 239.796 158.337 239.754 158.316C237.989 160.131 235.635 161.567 232.966 162.24V182.284H277.319ZM229.463 141.005C233.505 141.005 236.791 144.29 236.791 148.333C236.791 153.013 232.419 156.537 227.823 155.472C224.475 154.701 222.128 151.731 222.128 148.333C222.135 144.29 225.427 141.005 229.463 141.005H229.463ZM219.171 158.31L181.136 180.266L181.136 180.267C181.43 181.317 181.523 182.072 181.544 182.247C181.547 182.268 181.548 182.281 181.549 182.285H225.96V162.234C223.269 161.554 220.915 160.097 219.171 158.31ZM160.007 184.161C160.007 180.119 163.293 176.833 167.335 176.833C171.7 176.833 175.168 180.665 174.6 185.1C174.166 188.505 171.427 191.118 168.085 191.462C167.84 191.49 167.587 191.497 167.335 191.497C163.293 191.49 160.007 188.204 160.007 184.162L160.007 184.161ZM160.007 255.839C160.007 259.881 163.293 263.167 167.335 263.167L167.335 263.167C170.096 263.167 172.499 261.633 173.753 259.384C176.331 254.641 173.185 249.064 168.085 248.546H168.078C163.748 248.104 160.007 251.516 160.007 255.839ZM181.137 259.727C182.054 256.483 181.83 252.833 180.177 249.47L197.075 240.72L211.112 268.135L211.226 268.358C217.238 280.099 217.301 280.222 217.365 280.344L217.367 280.348C217.385 280.384 217.409 280.429 217.582 280.765L200.186 270.705L181.137 259.727ZM222.135 291.66C222.135 295.702 225.42 298.988 229.463 298.988L229.463 298.988C233.512 298.988 236.798 295.703 236.791 291.667C236.791 289.551 235.887 287.646 234.451 286.308C234.276 286.21 234.108 286.105 233.946 285.978C231.312 283.919 227.564 283.919 224.93 285.978C224.811 286.07 224.685 286.154 224.552 286.231C223.073 287.576 222.135 289.509 222.135 291.66ZM277.732 259.748C277.69 259.769 241.315 280.78 241.281 280.8L261.282 241.743L278.005 251.068C277.073 253.709 276.898 256.75 277.732 259.748H277.732ZM284.535 258.011C285.46 260.995 288.248 263.167 291.534 263.167V263.167C295.576 263.167 298.862 259.874 298.862 255.832C298.862 251.789 295.576 248.497 291.534 248.497C286.623 248.497 283.057 253.282 284.535 258.011Z" fill="white"/>
<path d="M295.037 198.061L294.548 196.122L293.037 196.503V198.061H295.037ZM295.037 241.932H293.037V243.491L294.55 243.872L295.037 241.932ZM305.861 255.839L303.861 255.836V255.839H305.861ZM281.243 265.808L282.679 264.416L281.554 263.255L280.182 264.112L281.243 265.808ZM257.004 279.806L256.004 278.074L256.004 278.074L257.004 279.806ZM256.116 280.319L257.117 282.051L257.117 282.051L256.116 280.319ZM255.679 280.571L254.679 278.839L254.679 278.839L255.679 280.571ZM255.501 280.674L256.501 282.406L256.501 282.406L255.501 280.674ZM243.249 287.749L242.221 286.034L240.906 286.823L241.326 288.297L243.249 287.749ZM215.674 287.749L217.598 288.296L218.024 286.798L216.675 286.018L215.674 287.749ZM196.688 276.771L197.69 275.04L197.687 275.038L196.688 276.771ZM177.633 265.793L178.631 264.06L177.279 263.281L176.194 264.403L177.633 265.793ZM163.901 241.917L164.382 243.859L165.901 243.482V241.917H163.901ZM163.901 198.082H165.901V196.517L164.382 196.141L163.901 198.082ZM177.633 174.207L176.194 175.596L177.233 176.671L178.558 175.98L177.633 174.207ZM194.178 164.657L195.178 166.389L194.178 164.657ZM215.674 152.251L216.569 154.039L218.051 153.298L217.598 151.704L215.674 152.251ZM243.256 152.243L241.332 151.698L240.89 153.256L242.323 154.012L243.256 152.243ZM281.25 174.185L280.19 175.881L281.559 176.737L282.684 175.579L281.25 174.185ZM281.908 245.21L282.961 246.911L285.896 245.095L282.861 243.451L281.908 245.21ZM281.908 245.211L280.558 243.735L282.96 246.911L281.908 245.211ZM288.031 241.925L288.536 243.86L290.031 243.469V241.925H288.031ZM264.478 235.493L262.698 234.581L261.818 236.3L263.504 237.24L264.478 235.493ZM284.402 196.59L285.403 194.859L283.581 193.805L282.622 195.679L284.402 196.59ZM288.031 198.061H290.031V196.5L288.516 196.121L288.031 198.061ZM170.901 241.938H168.901V243.492L170.407 243.876L170.901 241.938ZM175.455 244.019L174.318 245.664L175.307 246.348L176.375 245.795L175.455 244.019ZM170.901 198.053L170.409 196.115L168.901 196.498V198.053H170.901ZM174.474 196.589L176.254 195.677L175.292 193.799L173.468 194.861L174.474 196.589ZM193.887 234.477L194.807 236.253L196.575 235.337L195.667 233.565L193.887 234.477ZM278.14 189.289L280.006 188.571L279.513 187.289L278.14 187.289L278.14 189.289ZM278.357 189.828L279.302 191.591L280.909 190.729L280.199 189.049L278.357 189.828ZM232.973 189.288L232.973 187.288L230.973 187.288V189.288H232.973ZM232.973 206.081H230.973V207.639L232.483 208.02L232.973 206.081ZM240.076 210.348L238.596 211.692L239.645 212.848L241.021 212.11L240.076 210.348ZM236.791 219.982H234.791V219.985L236.791 219.982ZM225.961 206.082L226.447 208.021L227.961 207.642V206.082H225.961ZM219.831 209.374L218.722 211.039L220.022 211.905L221.177 210.853L219.831 209.374ZM225.961 189.289H227.961V187.289H225.961V189.289ZM189.684 189.289V187.289H183.075L188.575 190.953L189.684 189.289ZM179.924 191.201L178.166 190.248L178.16 190.26L179.924 191.201ZM179.749 191.516L178.034 190.487L177.463 191.44L177.969 192.428L179.749 191.516ZM179.924 191.201L181.033 189.536L179.209 188.321L178.166 190.248L179.924 191.201ZM215.956 215.203L217.841 215.871L218.361 214.402L217.064 213.539L215.956 215.203ZM215.521 223.274L216.441 225.05L217.824 224.333L217.468 222.817L215.521 223.274ZM200.116 231.253L198.336 232.166L199.252 233.953L201.035 233.029L200.116 231.253ZM218.735 229.495L220.233 228.17L219.2 227.002L217.816 227.719L218.735 229.495ZM225.958 233.909L227.958 233.91L227.959 232.35L226.447 231.97L225.958 233.909ZM203.302 237.488L202.382 235.712L200.614 236.628L201.522 238.4L203.302 237.488ZM224.207 278.319L222.426 279.228L223.247 280.836L224.93 280.184L224.207 278.319ZM225.937 277.758L226.439 279.694L227.937 279.307L227.937 277.759L225.937 277.758ZM232.95 277.752L230.95 277.751L230.95 279.3L232.449 279.688L232.95 277.752ZM234.688 278.312L233.945 280.169L235.637 280.846L236.468 279.224L234.688 278.312ZM232.971 233.91L232.482 231.971L230.972 232.352L230.971 233.909L232.971 233.91ZM239.907 229.819L240.881 228.072L239.518 227.312L238.45 228.449L239.907 229.819ZM255.166 238.324L256.946 239.235L257.826 237.517L256.14 236.577L255.166 238.324ZM243.312 223.702L241.38 223.183L240.976 224.69L242.338 225.449L243.312 223.702ZM243.375 216.528L242.43 214.766L241.059 215.501L241.434 217.011L243.375 216.528ZM258.354 232.089L257.38 233.835L259.19 234.844L260.134 233L258.354 232.089ZM275 199.574L276.78 200.486L279.698 194.786L274.055 197.812L275 199.574ZM291.534 176.826L291.534 178.826H291.534V176.826ZM284.57 186.431L282.659 187.021L282.664 187.037L282.67 187.053L284.57 186.431ZM284.331 185.385L286.307 185.073L286.304 185.058L286.301 185.042L284.331 185.385ZM284.331 185.385H282.331V185.557L282.36 185.727L284.331 185.385ZM284.331 185.384H286.331V185.228L286.306 185.073L284.331 185.384ZM284.248 184.945L282.26 185.161L282.274 185.294L282.306 185.423L284.248 184.945ZM277.732 180.245L278.262 178.317L276.34 177.788L275.805 179.708L277.732 180.245ZM277.319 182.284V184.284H279.07L279.301 182.548L277.319 182.284ZM277.733 180.245L277.203 182.174L278.762 178.53L277.733 180.245ZM239.754 158.316L240.649 156.527L239.341 155.873L238.321 156.922L239.754 158.316ZM232.966 162.24L232.477 160.3L230.966 160.681V162.24H232.966ZM232.966 182.284H230.966V184.284H232.966V182.284ZM227.823 155.472L228.275 153.523L228.272 153.523L227.823 155.472ZM222.128 148.333L220.128 148.329V148.333H222.128ZM181.136 180.266L180.136 178.534L179.646 178.817L179.377 179.315L181.136 180.266ZM219.171 158.31L220.602 156.913L219.516 155.802L218.171 156.578L219.171 158.31ZM181.136 180.267L179.376 179.316L178.992 180.028L179.21 180.806L181.136 180.267ZM181.544 182.247L179.559 182.492L179.559 182.492L181.544 182.247ZM181.549 182.285L179.588 182.677L179.909 184.285H181.549V182.285ZM225.96 182.285V184.285H227.96V182.285H225.96ZM225.96 162.234H227.96V160.676L226.449 160.295L225.96 162.234ZM160.007 184.161H158.007V184.386L158.057 184.606L160.007 184.161ZM174.6 185.1L172.616 184.846L172.616 184.847L174.6 185.1ZM168.085 191.462L167.881 189.472L167.869 189.473L167.858 189.475L168.085 191.462ZM167.335 191.497L167.332 193.497H167.335V191.497ZM160.007 184.162H162.007V183.937L161.957 183.717L160.007 184.162ZM167.335 263.167L168.717 261.72L168.137 261.167H167.335V263.167ZM167.335 263.167L165.954 264.613L166.534 265.167H167.335V263.167ZM173.753 259.384L175.499 260.358L175.505 260.348L175.51 260.339L173.753 259.384ZM168.085 248.546L168.287 246.556L168.186 246.546H168.085V248.546ZM168.078 248.546L167.875 250.535L167.976 250.546H168.078V248.546ZM180.177 249.47L179.257 247.694L177.518 248.595L178.382 250.353L180.177 249.47ZM181.137 259.727L179.212 259.182L178.788 260.682L180.138 261.46L181.137 259.727ZM197.075 240.72L198.855 239.808L197.939 238.02L196.155 238.944L197.075 240.72ZM211.112 268.135L209.332 269.046L209.332 269.046L211.112 268.135ZM211.226 268.358L213.007 267.446L213.007 267.446L211.226 268.358ZM217.365 280.344L219.138 279.42L219.138 279.419L217.365 280.344ZM217.367 280.348L215.593 281.272L215.594 281.274L217.367 280.348ZM217.582 280.765L216.58 282.496L222.469 285.902L219.361 279.851L217.582 280.765ZM200.186 270.705L201.187 268.973L201.185 268.972L200.186 270.705ZM229.463 298.988L230.572 297.324L230.068 296.988H229.463V298.988ZM229.463 298.988L228.353 300.652L228.857 300.988H229.463V298.988ZM236.791 291.667H234.791V291.671L236.791 291.667ZM234.451 286.308L235.814 284.844L235.638 284.68L235.428 284.563L234.451 286.308ZM233.946 285.978L235.179 284.403L235.178 284.403L233.946 285.978ZM224.93 285.978L226.145 287.567L226.153 287.561L226.162 287.554L224.93 285.978ZM224.552 286.231L223.55 284.5L223.364 284.607L223.206 284.751L224.552 286.231ZM241.281 280.8L239.501 279.889L236.404 285.935L242.283 282.531L241.281 280.8ZM277.732 259.748L278.626 261.537L277.732 257.748V259.748ZM261.282 241.743L262.256 239.996L260.446 238.987L259.502 240.832L261.282 241.743ZM278.005 251.068L279.891 251.733L280.452 250.143L278.979 249.321L278.005 251.068ZM277.732 259.748L275.805 260.284L276.212 261.748H277.732V259.748ZM291.534 263.167V265.167H293.534V263.167H291.534ZM284.535 258.011L286.446 257.419L286.444 257.414L284.535 258.011ZM291.534 263.167V261.167H289.534V263.167H291.534ZM297.037 241.932V198.061H293.037V241.932H297.037ZM297.037 241.932V241.932H293.037V241.932H297.037ZM307.861 255.841C307.869 248.195 302.606 241.773 295.525 239.992L294.55 243.872C299.897 245.216 303.867 250.072 303.861 255.836L307.861 255.841ZM291.527 272.172C300.534 272.172 307.861 264.846 307.861 255.839H303.861C303.861 262.637 298.325 268.172 291.527 268.172V272.172ZM279.806 267.199C282.772 270.261 286.934 272.172 291.527 272.172V268.172C288.064 268.172 284.925 266.735 282.679 264.416L279.806 267.199ZM258.005 281.538C268.83 275.287 282.238 267.544 282.303 267.504L280.182 264.112C280.197 264.103 266.91 271.776 256.004 278.074L258.005 281.538ZM257.117 282.051L258.005 281.538L256.004 278.074L255.116 278.587L257.117 282.051ZM256.679 282.303L257.117 282.051L255.116 278.587L254.679 278.839L256.679 282.303ZM256.501 282.406L256.679 282.303L254.679 278.839L254.501 278.942L256.501 282.406ZM244.278 289.465C244.272 289.468 249.705 286.331 256.501 282.406L254.501 278.942C247.742 282.845 242.253 286.015 242.221 286.034L244.278 289.465ZM229.462 308C240.263 308 248.144 297.642 245.173 287.202L241.326 288.297C243.567 296.171 237.619 304 229.462 304V308ZM213.751 287.203C210.779 297.658 218.684 308 229.462 308V304C221.324 304 215.357 296.182 217.598 288.296L213.751 287.203ZM195.687 278.503L214.673 289.481L216.675 286.018L197.69 275.04L195.687 278.503ZM176.634 267.526L195.69 278.504L197.687 275.038L178.631 264.06L176.634 267.526ZM167.334 272.172C171.943 272.172 176.105 270.252 179.071 267.183L176.194 264.403C173.948 266.729 170.809 268.172 167.334 268.172V272.172ZM151 255.838C151 264.845 158.327 272.172 167.334 272.172V268.172C160.536 268.172 155 262.636 155 255.838H151ZM163.42 239.976C156.304 241.739 151 248.167 151 255.838H155C155 250.057 159 245.192 164.382 243.859L163.42 239.976ZM161.901 198.082V241.917H165.901V198.082H161.901ZM151 184.162C151 191.825 156.303 198.26 163.42 200.024L164.382 196.141C159.001 194.808 155 189.936 155 184.162H151ZM167.334 167.828C158.327 167.828 151 175.155 151 184.162H155C155 177.364 160.536 171.828 167.334 171.828V167.828ZM179.071 172.817C176.105 169.748 171.943 167.828 167.334 167.828V171.828C170.809 171.828 173.948 173.271 176.194 175.596L179.071 172.817ZM193.178 162.925C184.522 167.922 176.676 172.45 176.708 172.433L178.558 175.98C178.627 175.944 186.62 171.329 195.178 166.389L193.178 162.925ZM214.78 150.462C214.686 150.509 203.359 157.049 193.178 162.925L195.178 166.389C205.496 160.433 216.617 154.015 216.569 154.039L214.78 150.462ZM229.462 132C218.651 132 210.788 142.368 213.75 152.797L217.598 151.704C215.363 143.833 221.301 136 229.462 136V132ZM245.18 152.789C248.144 142.342 240.254 132 229.462 132V136C237.613 136 243.567 143.817 241.332 151.698L245.18 152.789ZM282.31 172.489C282.216 172.431 244.301 150.533 244.19 150.475L242.323 154.012C242.31 154.005 251.729 159.444 261.256 164.946C270.779 170.446 280.201 175.888 280.19 175.881L282.31 172.489ZM291.534 167.827C286.941 167.827 282.781 169.738 279.815 172.792L282.684 175.579C284.931 173.265 288.071 171.827 291.534 171.827V167.827ZM307.868 184.161C307.868 175.154 300.542 167.827 291.534 167.827V171.827C298.332 171.827 303.868 177.363 303.868 184.161H307.868ZM295.526 200C302.613 198.213 307.868 191.799 307.868 184.161H303.868C303.868 189.919 299.904 194.771 294.548 196.122L295.526 200ZM282.861 243.451L282.861 243.451L280.956 246.969L280.956 246.969L282.861 243.451ZM282.96 246.911L282.961 246.911L280.856 243.509L280.855 243.51L282.96 246.911ZM280.558 243.734L280.558 243.735L283.258 246.686L283.258 246.686L280.558 243.734ZM283.26 246.684C284.618 245.44 286.387 244.422 288.536 243.86L287.525 239.99C284.743 240.717 282.393 242.052 280.557 243.736L283.26 246.684ZM263.504 237.24L280.934 246.957L282.882 243.463L265.452 233.746L263.504 237.24ZM282.622 195.679L262.698 234.581L266.258 236.405L286.182 197.502L282.622 195.679ZM288.516 196.121C287.487 195.864 286.4 195.436 285.403 194.859L283.401 198.322C284.729 199.09 286.165 199.657 287.546 200.002L288.516 196.121ZM290.031 241.925V198.061H286.031V241.925H290.031ZM170.407 243.876C171.839 244.242 173.165 244.867 174.318 245.664L176.592 242.374C175.069 241.321 173.312 240.489 171.396 240L170.407 243.876ZM168.901 198.053V241.938H172.901V198.053H168.901ZM173.468 194.861C172.517 195.414 171.491 195.84 170.409 196.115L171.394 199.992C172.847 199.622 174.218 199.053 175.481 198.317L173.468 194.861ZM195.667 233.565L176.254 195.677L172.694 197.501L192.107 235.389L195.667 233.565ZM176.375 245.795L194.807 236.253L192.968 232.7L174.536 242.243L176.375 245.795ZM276.273 190.007C276.349 190.206 276.428 190.402 276.515 190.607L280.199 189.049C280.132 188.891 280.07 188.736 280.006 188.571L276.273 190.007ZM232.972 191.288L278.139 191.289L278.14 187.289L232.973 187.288L232.972 191.288ZM234.973 206.081V189.288H230.973V206.081H234.973ZM241.557 209.003C239.427 206.658 236.625 204.941 233.462 204.142L232.483 208.02C234.868 208.623 236.985 209.918 238.596 211.692L241.557 209.003ZM277.412 188.066L239.131 208.585L241.021 212.11L279.302 191.591L277.412 188.066ZM220.135 219.982C220.135 225.135 224.308 229.338 229.463 229.338V225.338C226.532 225.338 224.135 222.941 224.135 219.982H220.135ZM229.463 210.654C224.196 210.654 220.135 214.99 220.135 219.982H224.135C224.135 217.127 226.477 214.654 229.463 214.654V210.654ZM238.791 219.982C238.791 214.835 234.61 210.654 229.463 210.654V214.654C232.4 214.654 234.791 217.044 234.791 219.982H238.791ZM229.463 229.338C234.622 229.338 238.8 225.136 238.791 219.978L234.791 219.985C234.796 222.94 232.402 225.338 229.463 225.338V229.338ZM225.475 204.142C222.827 204.805 220.439 206.116 218.485 207.895L221.177 210.853C222.656 209.507 224.457 208.521 226.447 208.021L225.475 204.142ZM223.961 189.289V206.082H227.961V189.289H223.961ZM189.684 191.289H225.961V187.289H189.684V191.289ZM220.94 207.71L190.793 187.624L188.575 190.953L218.722 211.039L220.94 207.71ZM178.16 190.26C178.1 190.371 178.067 190.432 178.034 190.487L181.464 192.545C181.557 192.39 181.636 192.241 181.689 192.142L178.16 190.26ZM178.166 190.248L178.166 190.248L181.683 192.154L181.683 192.153L178.166 190.248ZM217.064 213.539L181.033 189.536L178.816 192.865L214.847 216.868L217.064 213.539ZM217.468 222.817C216.918 220.471 217.058 218.08 217.841 215.871L214.07 214.535C213.032 217.468 212.849 220.64 213.574 223.731L217.468 222.817ZM201.035 233.029L216.441 225.05L214.601 221.498L199.196 229.478L201.035 233.029ZM177.969 192.428L198.336 232.166L201.895 230.341L181.529 190.604L177.969 192.428ZM217.238 230.821C219.38 233.242 222.229 235.032 225.47 235.848L226.447 231.97C224.014 231.357 221.86 230.009 220.233 228.17L217.238 230.821ZM204.222 239.264L219.655 231.271L217.816 227.719L202.382 235.712L204.222 239.264ZM225.988 277.409C224.488 274.472 207.645 241.578 205.082 236.576L201.522 238.4C204.085 243.402 220.927 276.294 222.426 279.228L225.988 277.409ZM225.436 275.822C224.758 275.997 224.11 276.211 223.484 276.454L224.93 280.184C225.425 279.991 225.926 279.827 226.439 279.694L225.436 275.822ZM223.958 233.908L223.937 277.757L227.937 277.759L227.958 233.91L223.958 233.908ZM232.449 279.688C232.982 279.826 233.48 279.983 233.945 280.169L235.431 276.455C234.775 276.193 234.11 275.986 233.452 275.816L232.449 279.688ZM230.971 233.909L230.95 277.751L234.95 277.753L234.971 233.911L230.971 233.909ZM238.45 228.449C236.855 230.146 234.793 231.387 232.482 231.971L233.461 235.849C236.531 235.074 239.26 233.428 241.365 231.188L238.45 228.449ZM256.14 236.577L240.881 228.072L238.933 231.565L254.192 240.071L256.14 236.577ZM236.468 279.224L256.946 239.235L253.386 237.412L232.908 277.401L236.468 279.224ZM245.243 224.221C245.962 221.545 245.986 218.741 245.316 216.046L241.434 217.011C241.941 219.051 241.922 221.166 241.38 223.183L245.243 224.221ZM259.328 230.342L244.286 221.955L242.338 225.449L257.38 233.835L259.328 230.342ZM273.219 198.663L256.574 231.177L260.134 233L276.78 200.486L273.219 198.663ZM244.32 218.291L275.945 201.337L274.055 197.812L242.43 214.766L244.32 218.291ZM300.862 184.154C300.862 179.007 296.681 174.826 291.534 174.826V178.826C294.472 178.826 296.862 181.216 296.862 184.154H300.862ZM291.534 193.482C296.681 193.482 300.862 189.301 300.862 184.154H296.862C296.862 187.091 294.472 189.482 291.534 189.482V193.482ZM282.67 187.053C283.89 190.776 287.398 193.482 291.534 193.482V189.482C289.183 189.482 287.17 187.941 286.471 185.808L282.67 187.053ZM282.355 185.697C282.403 185.997 282.467 186.399 282.659 187.021L286.481 185.84C286.422 185.649 286.388 185.511 286.365 185.404C286.342 185.294 286.327 185.203 286.307 185.073L282.355 185.697ZM282.36 185.727L282.361 185.728L286.301 185.042L286.301 185.042L282.36 185.727ZM282.331 185.384V185.385H286.331V185.384H282.331ZM282.306 185.423C282.321 185.484 282.331 185.542 282.355 185.696L286.306 185.073C286.284 184.932 286.251 184.716 286.19 184.468L282.306 185.423ZM291.534 174.826C285.976 174.826 281.662 179.658 282.26 185.161L286.236 184.729C285.895 181.587 288.362 178.826 291.534 178.826L291.534 174.826ZM275.805 179.708C275.627 180.348 275.447 181.189 275.336 182.019L279.301 182.548C279.387 181.907 279.529 181.249 279.659 180.782L275.805 179.708ZM278.263 178.317L278.262 178.317L277.202 182.173L277.203 182.174L278.263 178.317ZM238.86 160.105C238.809 160.08 248.192 165.496 257.746 171.013C267.25 176.501 276.706 181.961 276.704 181.96L278.762 178.53C278.746 178.521 240.774 156.59 240.649 156.527L238.86 160.105ZM233.454 164.179C236.502 163.411 239.178 161.776 241.188 159.711L238.321 156.922C236.8 158.485 234.768 159.723 232.477 160.3L233.454 164.179ZM234.966 182.284V162.24H230.966V182.284H234.966ZM277.319 180.284H232.966V184.284H277.319V180.284ZM238.791 148.333C238.791 143.186 234.61 139.005 229.463 139.005V143.005C232.401 143.005 234.791 145.395 234.791 148.333H238.791ZM227.372 157.42C233.233 158.778 238.791 154.288 238.791 148.333H234.791C234.791 151.738 231.605 154.295 228.275 153.523L227.372 157.42ZM220.128 148.333C220.128 152.662 223.117 156.441 227.375 157.421L228.272 153.523C225.832 152.961 224.128 150.8 224.128 148.333H220.128ZM229.463 139.005C224.323 139.005 220.137 143.185 220.128 148.329L224.128 148.336C224.133 145.396 226.531 143.005 229.463 143.005V139.005ZM229.463 139.005H229.463V143.005H229.463V139.005ZM182.136 181.998L220.171 160.043L218.171 156.578L180.136 178.534L182.136 181.998ZM182.895 181.218L182.896 181.217L179.377 179.315L179.376 179.316L182.895 181.218ZM183.529 182.003C183.501 181.776 183.393 180.913 183.062 179.728L179.21 180.806C179.466 181.722 179.544 182.368 179.559 182.492L183.529 182.003ZM183.51 181.893C183.517 181.928 183.522 181.955 183.524 181.967C183.526 181.98 183.527 181.991 183.528 181.997C183.53 182.008 183.531 182.016 183.531 182.017C183.531 182.017 183.531 182.015 183.529 182.003L179.559 182.492C179.56 182.5 179.562 182.515 179.564 182.529C179.565 182.535 179.566 182.548 179.569 182.564C179.569 182.568 179.576 182.617 179.588 182.677L183.51 181.893ZM225.96 180.285H181.549V184.285H225.96V180.285ZM223.96 162.234V182.285H227.96V162.234H223.96ZM217.74 159.708C219.723 161.739 222.397 163.396 225.47 164.173L226.449 160.295C224.142 159.712 222.107 158.455 220.602 156.913L217.74 159.708ZM167.335 174.833C162.188 174.833 158.007 179.014 158.007 184.161H162.007C162.007 181.224 164.397 178.833 167.335 178.833V174.833ZM176.584 185.354C177.307 179.708 172.89 174.833 167.335 174.833V178.833C170.51 178.833 173.029 181.623 172.616 184.846L176.584 185.354ZM168.289 193.451C172.545 193.014 176.031 189.691 176.584 185.353L172.616 184.847C172.301 187.319 170.308 189.223 167.881 189.472L168.289 193.451ZM167.335 193.497C167.618 193.497 167.957 193.489 168.312 193.449L167.858 189.475C167.722 189.49 167.557 189.497 167.335 189.497V193.497ZM158.007 184.162C158.007 189.309 162.188 193.488 167.332 193.497L167.339 189.497C164.398 189.492 162.007 187.099 162.007 184.162H158.007ZM158.057 184.606L158.057 184.606L161.957 183.717L161.957 183.717L158.057 184.606ZM167.335 261.167C164.397 261.167 162.007 258.776 162.007 255.839H158.007C158.007 260.986 162.188 265.167 167.335 265.167V261.167ZM168.717 261.721L168.717 261.72L165.954 264.613L165.954 264.613L168.717 261.721ZM172.006 258.41C171.088 260.056 169.335 261.167 167.335 261.167V265.167C170.856 265.167 173.91 263.209 175.499 260.358L172.006 258.41ZM167.883 250.535C171.595 250.913 173.875 254.97 171.996 258.429L175.51 260.339C178.786 254.311 174.776 247.215 168.287 246.556L167.883 250.535ZM168.078 250.546H168.085V246.546H168.078V250.546ZM162.007 255.839C162.007 252.694 164.731 250.215 167.875 250.535L168.281 246.556C162.766 245.994 158.007 250.338 158.007 255.839H162.007ZM178.382 250.353C179.81 253.258 180 256.398 179.212 259.182L183.061 260.271C184.109 256.568 183.85 252.408 181.971 248.588L178.382 250.353ZM196.155 238.944L179.257 247.694L181.096 251.246L197.994 242.496L196.155 238.944ZM212.892 267.223L198.855 239.808L195.295 241.631L209.332 269.046L212.892 267.223ZM213.007 267.446L212.892 267.223L209.332 269.046L209.446 269.269L213.007 267.446ZM219.138 279.419C219.079 279.306 219.023 279.196 213.007 267.446L209.446 269.269C215.453 281.002 215.523 281.138 215.592 281.269L219.138 279.419ZM219.14 279.424L219.138 279.42L215.591 281.269L215.593 281.272L219.14 279.424ZM219.361 279.851C219.188 279.516 219.162 279.465 219.14 279.422L215.594 281.274C215.609 281.303 215.63 281.342 215.803 281.679L219.361 279.851ZM199.185 272.436L216.58 282.496L218.583 279.034L201.187 268.973L199.185 272.436ZM180.138 261.46L199.188 272.437L201.185 268.972L182.135 257.994L180.138 261.46ZM229.463 296.988C226.525 296.988 224.135 294.598 224.135 291.66H220.135C220.135 296.807 224.316 300.988 229.463 300.988V296.988ZM230.572 297.324L230.572 297.324L228.353 300.652L228.353 300.652L230.572 297.324ZM234.791 291.671C234.796 294.596 232.411 296.988 229.463 296.988V300.988C234.613 300.988 238.8 296.81 238.791 291.664L234.791 291.671ZM233.087 287.771C234.138 288.75 234.791 290.134 234.791 291.667H238.791C238.791 288.969 237.636 286.542 235.814 284.844L233.087 287.771ZM232.714 287.554C232.982 287.763 233.244 287.924 233.474 288.053L235.428 284.563C235.307 284.495 235.233 284.446 235.179 284.403L232.714 287.554ZM226.162 287.554C228.072 286.06 230.804 286.06 232.714 287.554L235.178 284.403C231.82 281.777 227.056 281.777 223.698 284.403L226.162 287.554ZM225.554 287.962C225.759 287.843 225.956 287.711 226.145 287.567L223.715 284.39C223.665 284.428 223.611 284.464 223.55 284.5L225.554 287.962ZM224.135 291.66C224.135 290.105 224.811 288.699 225.898 287.71L223.206 284.751C221.336 286.453 220.135 288.913 220.135 291.66H224.135ZM242.283 282.531C242.283 282.531 242.318 282.511 242.389 282.47C242.459 282.43 242.562 282.37 242.696 282.293C242.964 282.138 243.357 281.911 243.856 281.623C244.854 281.046 246.277 280.224 247.985 279.237C251.401 277.264 255.952 274.635 260.504 272.007C269.676 266.709 278.677 261.512 278.626 261.537L276.837 257.959C276.745 258.006 267.537 263.325 258.503 268.543C249.401 273.8 240.297 279.059 240.279 279.069L242.283 282.531ZM259.502 240.832L239.501 279.889L243.061 281.712L263.062 242.655L259.502 240.832ZM278.979 249.321L262.256 239.996L260.308 243.49L277.031 252.815L278.979 249.321ZM279.659 259.212C278.938 256.621 279.092 253.999 279.891 251.733L276.119 250.403C275.055 253.419 274.858 256.879 275.805 260.284L279.659 259.212ZM277.732 257.748H277.732V261.748H277.732V257.748ZM291.534 261.167C289.15 261.167 287.118 259.59 286.446 257.419L282.625 258.603C283.802 262.4 287.347 265.167 291.534 265.167V261.167ZM289.534 263.167V263.167H293.534V263.167H289.534ZM296.862 255.832C296.862 258.772 294.469 261.167 291.534 261.167V265.167C296.683 265.167 300.862 260.976 300.862 255.832H296.862ZM291.534 250.497C294.469 250.497 296.862 252.891 296.862 255.832H300.862C300.862 250.687 296.683 246.497 291.534 246.497V250.497ZM286.444 257.414C285.372 253.983 287.961 250.497 291.534 250.497V246.497C285.285 246.497 280.742 252.58 282.626 258.607L286.444 257.414Z" fill="#4E61DA"/>
</g>
<defs>
<filter id="filter0_f" x="0" y="0" width="458" height="440" filterUnits="userSpaceOnUse" color-interpolation-filters="sRGB">
<feFlood flood-opacity="0" result="BackgroundImageFix"/>
<feBlend mode="normal" in="SourceGraphic" in2="BackgroundImageFix" result="shape"/>
<feGaussianBlur stdDeviation="42" result="effect1_foregroundBlur"/>
</filter>
<filter id="filter1_d" x="127" y="108" width="204.868" height="224" filterUnits="userSpaceOnUse" color-interpolation-filters="sRGB">
<feFlood flood-opacity="0" result="BackgroundImageFix"/>
<feColorMatrix in="SourceAlpha" type="matrix" values="0 0 0 0 0 0 0 0 0 0 0 0 0 0 0 0 0 0 127 0"/>
<feOffset/>
<feGaussianBlur stdDeviation="12"/>
<feColorMatrix type="matrix" values="0 0 0 0 0.305882 0 0 0 0 0.380392 0 0 0 0 0.854902 0 0 0 1 0"/>
<feBlend mode="normal" in2="BackgroundImageFix" result="effect1_dropShadow"/>
<feBlend mode="normal" in="SourceGraphic" in2="effect1_dropShadow" result="shape"/>
</filter>
</defs>
</svg>
